<svg width="36" height="36" viewBox="0 0 36 36" fill="none" xmlns="http://www.w3.org/2000/svg">
<path fill-rule="evenodd" clip-rule="evenodd" d="M18 0C8.0586 0 0 8.0586 0 18C0 27.9414 8.0586 36 18 36C27.9414 36 36 27.9414 36 18C36 8.0586 27.9414 0 18 0ZM11.7 13.5C11.7 12.6727 11.863 11.8534 12.1796 11.0891C12.4962 10.3247 12.9602 9.63024 13.5452 9.04523C14.1302 8.46022 14.8247 7.99616 15.5891 7.67956C16.3534 7.36295 17.1727 7.2 18 7.2C18.8273 7.2 19.6466 7.36295 20.4109 7.67956C21.1753 7.99616 21.8698 8.46022 22.4548 9.04523C23.0398 9.63024 23.5038 10.3247 23.8204 11.0891C24.137 11.8534 24.3 12.6727 24.3 13.5C24.3 15.1709 23.6363 16.7733 22.4548 17.9548C21.2733 19.1363 19.6709 19.8 18 19.8C16.3291 19.8 14.7267 19.1363 13.5452 17.9548C12.3637 16.7733 11.7 15.1709 11.7 13.5ZM29.2644 26.9712C27.9165 28.6656 26.2035 30.0339 24.2531 30.9739C22.3026 31.9139 20.1651 32.4014 18 32.4C15.8349 32.4014 13.6974 31.9139 11.7469 30.9739C9.79649 30.0339 8.08346 28.6656 6.7356 26.9712C9.6534 24.8778 13.635 23.4 18 23.4C22.365 23.4 26.3466 24.8778 29.2644 26.9712Z" fill="#6C5CE7"/>
</svg>
