<svg width="138" height="36" viewBox="0 0 138 36" fill="none" xmlns="http://www.w3.org/2000/svg">
<g clip-path="url(#clip0_93_316)">
<path d="M16.7322 13.4567C16.647 12.5973 16.2813 11.9297 15.6349 11.4538C14.9886 10.978 14.1115 10.7401 13.0036 10.7401C12.2507 10.7401 11.6151 10.8466 11.0966 11.0597C10.5781 11.2656 10.1804 11.5533 9.90341 11.9226C9.63352 12.2919 9.49858 12.7109 9.49858 13.1797C9.48438 13.5703 9.56605 13.9112 9.74361 14.2024C9.92827 14.4936 10.1804 14.7457 10.5 14.9588C10.8196 15.1648 11.1889 15.3459 11.608 15.5021C12.027 15.6513 12.4744 15.7791 12.9503 15.8857L14.9105 16.3544C15.8622 16.5675 16.7358 16.8516 17.5312 17.2067C18.3267 17.5618 19.0156 17.9986 19.598 18.517C20.1804 19.0355 20.6314 19.6463 20.951 20.3494C21.2777 21.0526 21.4446 21.8587 21.4517 22.7678C21.4446 24.103 21.1037 25.2607 20.429 26.2408C19.7614 27.2138 18.7955 27.9702 17.5312 28.5099C16.2741 29.0426 14.7578 29.3089 12.9822 29.3089C11.2209 29.3089 9.68679 29.0391 8.37997 28.4993C7.08026 27.9595 6.06463 27.1605 5.3331 26.1023C4.60866 25.0369 4.22869 23.7195 4.19318 22.1499H8.65696C8.70668 22.8814 8.91619 23.4922 9.28551 23.9822C9.66193 24.4652 10.1626 24.831 10.7876 25.0795C11.4197 25.321 12.1335 25.4418 12.929 25.4418C13.7102 25.4418 14.3885 25.3281 14.9638 25.1009C15.5462 24.8736 15.9972 24.5575 16.3168 24.1527C16.6364 23.7479 16.7962 23.2827 16.7962 22.7571C16.7962 22.267 16.6506 21.8551 16.3594 21.5213C16.0753 21.1875 15.6563 20.9034 15.1023 20.669C14.5554 20.4347 13.8842 20.2216 13.0888 20.0298L10.7131 19.4332C8.87358 18.9858 7.42116 18.2862 6.35582 17.3345C5.29048 16.3828 4.76136 15.1009 4.76847 13.4886C4.76136 12.1676 5.11293 11.0135 5.82315 10.0263C6.54048 9.03906 7.52415 8.26847 8.77415 7.71449C10.0241 7.16051 11.4446 6.88352 13.0355 6.88352C14.6548 6.88352 16.0682 7.16051 17.2756 7.71449C18.4901 8.26847 19.4347 9.03906 20.1094 10.0263C20.7841 11.0135 21.1321 12.157 21.1534 13.4567H16.7322ZM33.1731 12.6364V16.0455H23.3187V12.6364H33.1731ZM25.5559 8.71591H30.0943V23.9716C30.0943 24.3906 30.1582 24.7173 30.286 24.9517C30.4139 25.179 30.5914 25.3388 30.8187 25.4311C31.0531 25.5234 31.323 25.5696 31.6284 25.5696C31.8414 25.5696 32.0545 25.5518 32.2676 25.5163C32.4806 25.4737 32.644 25.4418 32.7576 25.4205L33.4714 28.7976C33.2441 28.8686 32.9245 28.9503 32.5126 29.0426C32.1007 29.142 31.6 29.2024 31.0105 29.2237C29.9167 29.2663 28.9579 29.1207 28.1341 28.7869C27.3173 28.4531 26.6816 27.9347 26.2271 27.2315C25.7725 26.5284 25.5488 25.6406 25.5559 24.5682V8.71591ZM43.3471 29.3196C41.6923 29.3196 40.2612 28.968 39.0538 28.2649C37.8535 27.5547 36.9267 26.5675 36.2733 25.3033C35.6199 24.032 35.2931 22.5582 35.2931 20.8821C35.2931 19.1918 35.6199 17.7145 36.2733 16.4503C36.9267 15.179 37.8535 14.1918 39.0538 13.4886C40.2612 12.7784 41.6923 12.4233 43.3471 12.4233C45.002 12.4233 46.4295 12.7784 47.6298 13.4886C48.8372 14.1918 49.7676 15.179 50.421 16.4503C51.0744 17.7145 51.4011 19.1918 51.4011 20.8821C51.4011 22.5582 51.0744 24.032 50.421 25.3033C49.7676 26.5675 48.8372 27.5547 47.6298 28.2649C46.4295 28.968 45.002 29.3196 43.3471 29.3196ZM43.3684 25.804C44.1213 25.804 44.7498 25.5909 45.2541 25.1648C45.7583 24.7315 46.1383 24.142 46.394 23.3963C46.6568 22.6506 46.7882 21.8018 46.7882 20.8501C46.7882 19.8984 46.6568 19.0497 46.394 18.304C46.1383 17.5582 45.7583 16.9687 45.2541 16.5355C44.7498 16.1023 44.1213 15.8857 43.3684 15.8857C42.6085 15.8857 41.9693 16.1023 41.4508 16.5355C40.9395 16.9687 40.5524 17.5582 40.2896 18.304C40.0339 19.0497 39.9061 19.8984 39.9061 20.8501C39.9061 21.8018 40.0339 22.6506 40.2896 23.3963C40.5524 24.142 40.9395 24.7315 41.4508 25.1648C41.9693 25.5909 42.6085 25.804 43.3684 25.804ZM54.3521 29V12.6364H58.752V15.4915H58.9224C59.2207 14.4759 59.7214 13.7088 60.4245 13.1903C61.1277 12.6648 61.9373 12.402 62.8535 12.402C63.0808 12.402 63.3258 12.4162 63.5886 12.4446C63.8514 12.473 64.0822 12.5121 64.2811 12.5618V16.5888C64.068 16.5249 63.7733 16.468 63.3968 16.4183C63.0204 16.3686 62.676 16.3438 62.3635 16.3438C61.6958 16.3438 61.0993 16.4893 60.5737 16.7805C60.0552 17.0646 59.6433 17.4624 59.3379 17.9737C59.0396 18.4851 58.8904 19.0746 58.8904 19.7422V29H54.3521ZM69.9274 35.1364C69.3521 35.1364 68.8123 35.0902 68.3081 34.9979C67.8109 34.9126 67.399 34.8026 67.0723 34.6676L68.095 31.2798C68.6277 31.4432 69.1071 31.532 69.5332 31.5462C69.9664 31.5604 70.3393 31.4609 70.6518 31.2479C70.9714 31.0348 71.2306 30.6726 71.4295 30.1612L71.6958 29.4688L65.8258 12.6364H70.5985L73.9863 24.6534H74.1568L77.5765 12.6364H82.3812L76.0211 30.7685C75.7157 31.6491 75.3002 32.4162 74.7747 33.0696C74.2562 33.7301 73.5993 34.2379 72.8038 34.593C72.0083 34.9553 71.0495 35.1364 69.9274 35.1364Z" fill="#4C44B8"/>
<path d="M84.7889 29V7.18182H89.4018V25.1967H98.7555V29H84.7889ZM109.183 29.3196C107.499 29.3196 106.05 28.9787 104.836 28.2969C103.629 27.608 102.698 26.6349 102.045 25.3778C101.391 24.1136 101.065 22.6186 101.065 20.8928C101.065 19.2095 101.391 17.7322 102.045 16.4609C102.698 15.1896 103.618 14.1989 104.804 13.4886C105.997 12.7784 107.396 12.4233 109.001 12.4233C110.081 12.4233 111.086 12.5973 112.016 12.9453C112.954 13.2862 113.771 13.8011 114.467 14.4901C115.17 15.179 115.717 16.0455 116.107 17.0895C116.498 18.1264 116.693 19.3409 116.693 20.733V21.9794H102.876V19.1669H112.421C112.421 18.5135 112.279 17.9347 111.995 17.4304C111.711 16.9261 111.317 16.532 110.812 16.2479C110.315 15.9567 109.737 15.8111 109.076 15.8111C108.387 15.8111 107.776 15.9709 107.244 16.2905C106.718 16.603 106.306 17.0256 106.008 17.5582C105.71 18.0838 105.557 18.6697 105.55 19.3161V21.9901C105.55 22.7997 105.699 23.4993 105.997 24.0888C106.303 24.6783 106.732 25.1328 107.286 25.4524C107.84 25.772 108.497 25.9318 109.257 25.9318C109.761 25.9318 110.223 25.8608 110.642 25.7188C111.061 25.5767 111.42 25.3636 111.718 25.0795C112.016 24.7955 112.244 24.4474 112.4 24.0355L116.597 24.3125C116.384 25.321 115.947 26.2017 115.287 26.9545C114.634 27.7003 113.788 28.2827 112.751 28.7017C111.722 29.1136 110.532 29.3196 109.183 29.3196ZM123.154 12.6364L126.159 18.3572L129.238 12.6364H133.893L129.152 20.8182L134.021 29H129.387L126.159 23.343L122.984 29H118.297L123.154 20.8182L118.467 12.6364H123.154Z" fill="#A29BFE"/>
<path d="M135.5 8L136.333 9.66667L138 10.5L136.333 11.3333L135.5 13L134.667 11.3333L133 10.5L134.667 9.66667L135.5 8Z" fill="#DCD6FF"/>
<path d="M3 26L4 28L6 29L4 30L3 32L2 30L0 29L2 28L3 26Z" fill="#DCD6FF"/>
</g>
<defs>
<clipPath id="clip0_93_316">
<rect width="138" height="36" fill="white"/>
</clipPath>
</defs>
</svg>
